<?xml version="1.0" encoding="utf-8"?>
<!-- Generator: Adobe Illustrator 19.0.1, SVG Export Plug-In . SVG Version: 6.00 Build 0)  -->
<svg version="1.1" id="Layer_1" xmlns="http://www.w3.org/2000/svg" xmlns:xlink="http://www.w3.org/1999/xlink" x="0px" y="0px"
	 viewBox="0 0 387 279" style="enable-background:new 0 0 387 279;" xml:space="preserve">
<style type="text/css">
	.st0{opacity:0.6;fill:#FFCE00;}
	.st1{opacity:0.4;fill:#FFCE00;}
	.st2{opacity:0.5;fill:#FFCE00;}
	.st3{fill:#282728;}
</style>
<g>
	<g>
		<polygon class="st0" points="373.5,94.9 14,268.9 14,154.2 		"/>
		<polygon class="st1" points="14,61.4 373.3,94.9 14,154.2 		"/>
		<polygon class="st2" points="14.1,17.3 43,17.3 373.3,94.9 14,61.4 		"/>
		<polygon class="st1" points="235.1,17.3 373.3,94.9 42.9,17.3 		"/>
		<polygon class="st2" points="269.9,17.3 373.3,94.9 234.9,17.2 		"/>
		<polygon class="st0" points="303,17.3 373.3,94.9 269.9,17.3 		"/>
		<polygon class="st2" points="323.7,17.3 373.3,94.9 303,17.3 		"/>
	</g>
	<g>
		<path class="st3" d="M231.6,47.9l-25,54.3h12.1l4.8-10.3h11.7l0,10.3h10.5V47.9H231.6z M228.5,81l6.7-14.5l0,14.5H228.5z"/>
		<path class="st3" d="M270.1,47.9l-25,54.3h12.1l4.8-10.3h11.7l0,10.3h10.5V47.9H270.1z M267,81l6.7-14.5V81H267z"/>
	</g>
</g>
</svg>
